<?xml version="1.0" ?><svg id="Layer_1" style="enable-background:new 0 0 24 24;" version="1.1" viewBox="0 0 24 24" xml:space="preserve" xmlns="http://www.w3.org/2000/svg" xmlns:xlink="http://www.w3.org/1999/xlink"><style type="text/css">
	.st0{fill:#1E232D;}
</style><path class="st0" d="M19.7,6h-3.8c-0.4-2-2-3-3.9-3S8.6,4,8.1,6H4.3l-3.2,8h2.2L5,9.7L7.5,16H0v1c0,2.8,2.2,5,5,5s5-2.2,5-5v-0.2  L6.5,8h1.7c0.4,2,2,3,3.9,3s3.4-1,3.9-3h1.5L15,14h2.2l1.8-4.5l2.6,6.5H14v1c0,2.8,2.2,5,5,5s5-2.2,5-5v-0.2L19.7,6z M5,20  c-1.3,0-2.4-1-2.8-2h5.7C7.4,19,6.3,20,5,20z M12,9c-1.1,0-2-0.9-2-2s0.9-2,2-2s2,0.9,2,2S13.1,9,12,9z M19,20c-1.3,0-2.4-1-2.8-2  h5.7C21.4,19,20.3,20,19,20z"/></svg>